<svg width="427" height="427" viewBox="0 0 427 427" fill="none" xmlns="http://www.w3.org/2000/svg">
<g clip-path="url(#clip0)">
<path d="M128 341.333C104.427 341.333 85.547 360.426 85.547 384C85.547 407.574 104.427 426.667 128 426.667C151.573 426.667 170.667 407.574 170.667 384C170.667 360.426 151.573 341.333 128 341.333Z" fill="#FFFFFF"/>
<path d="M151.467 234.667H310.4C326.4 234.667 340.373 225.814 347.733 212.694L424 74.24C425.707 71.253 426.667 67.733 426.667 64C426.667 52.16 417.067 42.667 405.334 42.667H89.92L69.653 0H0V42.667H42.667L119.36 204.48L90.56 256.747C87.253 262.934 85.333 269.867 85.333 277.334C85.333 300.907 104.427 320 128 320H384V277.333H137.067C134.08 277.333 131.734 274.986 131.734 272C131.734 271.04 131.947 270.187 132.374 269.44L151.467 234.667Z" fill="#FFFFFF"/>
<path d="M341.333 341.333C317.76 341.333 298.88 360.426 298.88 384C298.88 407.574 317.76 426.667 341.333 426.667C364.907 426.667 384 407.573 384 384C384 360.427 364.907 341.333 341.333 341.333Z" fill="#FFFFFF"/>
</g>
<defs>
<clipPath id="clip0">
<rect width="426.667" height="426.667" fill="white"/>
</clipPath>
</defs>
</svg>
