<svg width="933" height="819" viewBox="0 0 933 819" fill="none" xmlns="http://www.w3.org/2000/svg">
<g clip-path="url(#clip0)">
<path d="M396.446 607.238C399.696 530.813 334.445 468.731 257.948 468.731C181.452 468.731 119.462 530.747 119.462 607.238C119.462 607.238 118.122 673.438 135.22 703.232C135.22 703.232 140.107 671.966 163.069 660.237C186.031 648.508 192.378 639.229 192.378 639.229C192.378 639.229 144.016 733.038 253.446 818.05C253.446 818.05 242.695 774.572 265.657 757.473C288.619 740.374 296.921 711.062 294.483 690.054C294.483 690.054 317.445 706.67 311.581 745.744C311.581 745.744 343.34 726.207 341.868 627.027C341.868 627.027 377.525 629.465 365.313 689.56C365.313 689.56 393.887 667.573 396.446 607.238Z" fill="#D83131"/>
<path d="M185.262 543.497C185.262 543.497 191.028 465.437 264.647 468.094C264.647 468.094 326.736 468.984 330.733 535.953C330.733 535.953 295.043 508.355 295.384 552.36C295.439 560.19 297.624 567.823 301.105 574.84C305.091 582.901 309.846 597.277 306.793 616.682C306.793 616.682 298.03 578.53 277.517 597.167C265.251 608.314 260.452 618.044 265.547 662.368C265.547 662.368 250.657 649.431 246.659 619.505C245.902 613.838 241.915 608.874 236.337 607.633C230.846 606.414 224.082 608.709 218.986 622.755C218.986 622.755 207.456 605.975 225.191 565.198C225.191 565.198 230.066 545.716 214.099 537.732C198.132 529.748 185.262 543.497 185.262 543.497Z" fill="#FEE45A"/>
</g>
<g clip-path="url(#clip1)">
<path d="M255.999 510.939C255.999 510.939 122.23 511.793 8.23897 409.101C-0.811028 400.948 -2.66003 387.455 3.96097 377.23L30.727 335.896L38.272 334.13L244.979 16.093C252.055 5.16634 261.516 6.29844 268.591 17.2251L473.093 334.13L481.27 335.895L508.037 377.231C514.658 387.456 512.81 400.949 503.759 409.102C389.768 511.793 255.999 510.939 255.999 510.939V510.939Z" fill="#FE9738"/>
<path d="M508.035 377.23L271.066 11.2885C263.997 0.35882 248.001 0.35882 240.931 11.2885L238.444 15.1278C244.45 14.9007 250.549 17.6669 254.244 23.4153L492.276 394.413C496.745 401.369 497.364 409.832 494.536 417.139C497.621 414.538 500.697 411.855 503.762 409.1C512.813 400.946 514.66 387.458 508.035 377.23V377.23Z" fill="#FE860A"/>
<path d="M255.999 435.618C255.999 435.618 130.844 436.417 30.728 335.895L55.54 297.579L59.471 296.468L244.979 12.1536C252.055 1.2269 261.516 6.29824 268.591 17.2249L447.031 293.744L456.458 297.579L481.269 335.894C387.946 441.014 255.999 435.618 255.999 435.618V435.618Z" fill="#FEE45A"/>
<path d="M481.275 335.895L271.066 11.2886C263.997 0.358883 248.001 0.358883 240.931 11.2886L238.444 15.1278C244.45 14.9008 250.549 17.667 254.244 23.4153L465.35 352.449C470.759 347.258 476.074 341.748 481.275 335.895V335.895Z" fill="#FEDF30"/>
<path d="M255.999 386.319C255.999 386.319 144.629 387.03 55.54 297.579L240.93 11.2836C248.006 0.356861 263.993 0.356861 271.069 11.2836L456.459 297.579C375.836 392.568 255.999 386.319 255.999 386.319V386.319Z" fill="#FDB97E"/>
<path d="M456.455 297.575L271.066 11.2886C263.997 0.35888 248.001 0.35888 240.931 11.2886L238.444 15.1278C244.45 14.9008 250.549 17.667 254.244 23.4153L440.861 314.283C446.187 309.093 451.399 303.529 456.455 297.575Z" fill="#FEA95C"/>
<path d="M168.867 195.358C168.867 178.67 160.559 163.921 147.845 155.036L94.3979 237.571C101.787 242.008 110.435 244.557 119.682 244.557C146.844 244.557 168.867 222.533 168.867 195.358V195.358Z" fill="#E94444"/>
<path d="M168.867 195.358C168.867 178.67 160.559 163.921 147.845 155.036L133.624 177.008C139.063 184.924 142.252 194.512 142.252 204.843C142.252 221.119 134.347 235.547 122.18 244.495C148.186 243.194 168.867 221.697 168.867 195.358V195.358Z" fill="#D83131"/>
<path d="M362.522 152.518L309.219 70.1993C293.78 78.5078 283.295 94.8039 283.295 113.556C283.295 140.72 305.318 162.744 332.491 162.744C343.792 162.745 354.215 158.926 362.522 152.518Z" fill="#E94444"/>
<path d="M362.522 152.518L309.219 70.1993C302.903 73.6055 297.423 78.3318 293.14 84.0292L342.924 161.63C350.18 160.062 356.846 156.893 362.522 152.518Z" fill="#D83131"/>
<path d="M283.298 244.553C310.464 244.553 332.486 266.577 332.486 293.745C332.486 320.912 310.464 342.936 283.298 342.936C256.132 342.936 234.11 320.912 234.11 293.745C234.11 266.577 256.132 244.553 283.298 244.553Z" fill="#E94444"/>
<path d="M332.491 293.746C332.491 266.582 310.468 244.557 283.295 244.557C263.192 244.557 245.906 256.622 238.279 273.909C246.246 268.346 255.926 265.096 266.37 265.096C293.532 265.096 315.555 287.12 315.555 314.284C315.555 321.343 314.069 328.062 311.386 334.13C324.142 325.245 332.491 310.465 332.491 293.746V293.746Z" fill="#D83131"/>
<path d="M370.34 225.409C367.865 225.409 365.443 226.633 364.012 228.873L356.577 240.515C354.348 244.006 355.37 248.644 358.861 250.874C362.352 253.101 366.99 252.08 369.219 248.59L376.654 236.948C378.883 233.457 377.861 228.819 374.37 226.589C373.12 225.791 371.722 225.409 370.34 225.409V225.409Z" fill="#E57917"/>
<path d="M386.114 287.117C384.756 287.117 383.382 287.485 382.145 288.259C378.633 290.455 377.566 295.083 379.762 298.596L387.085 310.309C389.281 313.821 393.908 314.889 397.42 312.692C400.932 310.496 401.999 305.868 399.803 302.355L392.48 290.642C391.058 288.366 388.614 287.117 386.114 287.117Z" fill="#E57917"/>
<path d="M142.249 298.83C140.316 298.83 138.385 299.572 136.917 301.055C134.004 304 134.029 308.749 136.974 311.662L146.793 321.377C149.737 324.291 154.485 324.268 157.399 321.321C160.312 318.376 160.287 313.628 157.342 310.715L147.523 300.999C146.062 299.553 144.155 298.83 142.249 298.83V298.83Z" fill="#E57917"/>
<path d="M204.487 266.959C201.494 266.959 198.667 268.763 197.505 271.717L192.45 284.572C190.934 288.426 192.83 292.781 196.685 294.297C200.539 295.816 204.893 293.917 206.41 290.061L211.465 277.207C212.981 273.352 211.085 268.998 207.23 267.482C206.329 267.127 205.4 266.959 204.487 266.959Z" fill="#E57917"/>
<path d="M244.974 187.862C243.354 187.862 241.724 188.383 240.35 189.461L229.481 197.984C226.222 200.541 225.652 205.256 228.208 208.514C230.765 211.775 235.479 212.344 238.738 209.787L249.607 201.264C252.866 198.708 253.436 193.992 250.88 190.734C249.401 188.847 247.198 187.862 244.974 187.862Z" fill="#E57917"/>
<path d="M308.225 190.995C306.58 190.995 304.924 191.533 303.54 192.642C300.308 195.232 299.787 199.953 302.377 203.185L311.014 213.965C313.604 217.197 318.324 217.72 321.557 215.128C324.789 212.537 325.31 207.817 322.72 204.585L314.083 193.805C312.601 191.957 310.423 190.995 308.225 190.995Z" fill="#E57917"/>
<path d="M250.408 81.5901C248.788 81.5901 247.158 82.1111 245.784 83.1892L234.915 91.7137C231.656 94.2709 231.086 98.9852 233.642 102.244C236.199 105.504 240.913 106.074 244.172 103.516L255.041 94.9919C258.3 92.4348 258.87 87.7205 256.314 84.4612C254.835 82.5751 252.633 81.5901 250.408 81.5901V81.5901Z" fill="#E57917"/>
<path d="M208.794 138.67C207.207 138.67 205.606 139.171 204.248 140.209C200.956 142.723 200.325 147.43 202.839 150.722L211.222 161.701C213.736 164.992 218.443 165.625 221.735 163.11C225.027 160.596 225.658 155.889 223.144 152.597L214.761 141.618C213.285 139.686 211.052 138.67 208.794 138.67Z" fill="#E57917"/>
</g>
<defs>
<clipPath id="clip0">
<rect width="350" height="350.022" fill="white" transform="matrix(1 0 0 -1 83 818.05)"/>
</clipPath>
<clipPath id="clip1">
<rect width="512" height="512.033" fill="white" transform="matrix(1 0 0 -1 0 513.031)"/>
</clipPath>
</defs>
</svg>
