<svg width="512" height="818" viewBox="0 0 512 818" fill="none" xmlns="http://www.w3.org/2000/svg">
<g clip-path="url(#clip0)">
<path d="M396.446 606.24C399.696 529.815 334.445 467.733 257.948 467.733C181.452 467.733 119.462 529.749 119.462 606.24C119.462 606.24 118.122 672.44 135.22 702.234C135.22 702.234 140.107 670.968 163.069 659.239C186.031 647.51 192.378 638.231 192.378 638.231C192.378 638.231 144.016 732.04 253.446 817.052C253.446 817.052 242.695 773.574 265.657 756.475C288.619 739.376 296.921 710.065 294.483 689.056C294.483 689.056 317.445 705.672 311.581 744.746C311.581 744.746 343.34 725.209 341.868 626.029C341.868 626.029 377.525 628.467 365.313 688.562C365.313 688.562 393.887 666.575 396.446 606.24Z" fill="#D83131"/>
<path d="M185.262 542.5C185.262 542.5 191.028 464.439 264.647 467.096C264.647 467.096 326.736 467.986 330.733 534.955C330.733 534.955 295.043 507.357 295.384 551.362C295.439 559.192 297.624 566.825 301.105 573.842C305.091 581.903 309.846 596.279 306.793 615.684C306.793 615.684 298.03 577.532 277.517 596.169C265.251 607.316 260.452 617.046 265.547 661.37C265.547 661.37 250.657 648.433 246.659 618.507C245.902 612.84 241.915 607.876 236.337 606.635C230.846 605.416 224.082 607.711 218.986 621.757C218.986 621.757 207.456 604.977 225.191 564.2C225.191 564.2 230.066 544.718 214.099 536.734C198.132 528.75 185.262 542.5 185.262 542.5Z" fill="#FEE45A"/>
</g>
<g clip-path="url(#clip1)">
<path d="M255.999 509.941C255.999 509.941 122.23 510.795 8.23903 408.103C-0.810966 399.95 -2.65997 386.457 3.96103 376.232L30.727 334.899L38.272 333.132L244.979 15.0952C252.055 4.16846 261.516 5.30054 268.591 16.2272L473.093 333.132L481.27 334.898L508.037 376.233C514.658 386.458 512.81 399.951 503.759 408.104C389.768 510.795 255.999 509.941 255.999 509.941Z" fill="#FE9738"/>
<path d="M508.035 376.232L271.066 10.2906C263.997 -0.639069 248.001 -0.639069 240.931 10.2906L238.444 14.1299C244.45 13.9029 250.549 16.669 254.244 22.4174L492.276 393.415C496.745 400.372 497.364 408.834 494.536 416.142C497.621 413.54 500.697 410.857 503.762 408.102C512.813 399.949 514.66 386.46 508.035 376.232Z" fill="#FE860A"/>
<path d="M255.999 434.62C255.999 434.62 130.844 435.419 30.728 334.897L55.54 296.581L59.471 295.47L244.979 11.1557C252.055 0.229004 261.516 5.30035 268.591 16.2271L447.031 292.746L456.458 296.581L481.269 334.896C387.946 440.016 255.999 434.62 255.999 434.62Z" fill="#FEE45A"/>
<path d="M481.275 334.897L271.066 10.2907C263.997 -0.639008 248.001 -0.639008 240.931 10.2907L238.444 14.1299C244.45 13.9029 250.549 16.6691 254.244 22.4174L465.35 351.451C470.759 346.26 476.074 340.75 481.275 334.897Z" fill="#FEDF30"/>
<path d="M255.999 385.321C255.999 385.321 144.629 386.032 55.54 296.581L240.93 10.2857C248.006 -0.641022 263.993 -0.641022 271.069 10.2857L456.459 296.581C375.836 391.57 255.999 385.321 255.999 385.321Z" fill="#FDB97E"/>
<path d="M456.455 296.577L271.066 10.2907C263.997 -0.639008 248.001 -0.639008 240.931 10.2907L238.444 14.1299C244.45 13.9029 250.549 16.6691 254.244 22.4174L440.861 313.285C446.187 308.095 451.399 302.531 456.455 296.577Z" fill="#FEA95C"/>
<path d="M168.867 194.36C168.867 177.672 160.559 162.923 147.845 154.038L94.398 236.573C101.787 241.01 110.435 243.56 119.682 243.56C146.844 243.56 168.867 221.535 168.867 194.36Z" fill="#E94444"/>
<path d="M168.867 194.36C168.867 177.672 160.559 162.923 147.845 154.038L133.624 176.01C139.063 183.926 142.252 193.514 142.252 203.845C142.252 220.121 134.347 234.549 122.18 243.498C148.186 242.196 168.867 220.699 168.867 194.36Z" fill="#D83131"/>
<path d="M362.522 151.52L309.219 69.2014C293.78 77.5099 283.295 93.806 283.295 112.558C283.295 139.722 305.318 161.746 332.491 161.746C343.792 161.747 354.215 157.928 362.522 151.52Z" fill="#E94444"/>
<path d="M362.522 151.52L309.219 69.2014C302.903 72.6076 297.423 77.3339 293.14 83.0313L342.924 160.632C350.18 159.064 356.846 155.895 362.522 151.52Z" fill="#D83131"/>
<path d="M283.298 243.556C310.464 243.556 332.486 265.579 332.486 292.747C332.486 319.914 310.464 341.938 283.298 341.938C256.132 341.938 234.11 319.914 234.11 292.747C234.11 265.579 256.132 243.556 283.298 243.556Z" fill="#E94444"/>
<path d="M332.491 292.748C332.491 265.584 310.468 243.56 283.295 243.56C263.192 243.56 245.906 255.624 238.279 272.911C246.246 267.348 255.926 264.098 266.37 264.098C293.532 264.098 315.555 286.122 315.555 313.286C315.555 320.345 314.069 327.064 311.386 333.132C324.142 324.247 332.491 309.467 332.491 292.748Z" fill="#D83131"/>
<path d="M370.34 224.411C367.865 224.411 365.443 225.635 364.012 227.876L356.577 239.517C354.348 243.009 355.37 247.646 358.861 249.876C362.352 252.103 366.99 251.082 369.219 247.592L376.654 235.95C378.883 232.459 377.861 227.822 374.37 225.591C373.12 224.793 371.722 224.411 370.34 224.411Z" fill="#E57917"/>
<path d="M386.114 286.119C384.756 286.119 383.382 286.487 382.145 287.261C378.633 289.457 377.566 294.085 379.762 297.598L387.085 309.311C389.281 312.823 393.908 313.891 397.42 311.694C400.932 309.498 401.999 304.87 399.803 301.357L392.48 289.644C391.058 287.368 388.614 286.119 386.114 286.119Z" fill="#E57917"/>
<path d="M142.249 297.832C140.316 297.832 138.385 298.574 136.917 300.057C134.004 303.002 134.029 307.751 136.974 310.664L146.793 320.379C149.737 323.293 154.485 323.27 157.399 320.323C160.312 317.378 160.287 312.63 157.342 309.717L147.523 300.001C146.062 298.555 144.155 297.832 142.249 297.832Z" fill="#E57917"/>
<path d="M204.487 265.961C201.494 265.961 198.667 267.765 197.505 270.719L192.45 283.574C190.934 287.428 192.83 291.783 196.685 293.299C200.539 294.818 204.893 292.919 206.41 289.063L211.465 276.209C212.981 272.354 211.085 268 207.23 266.484C206.329 266.129 205.4 265.961 204.487 265.961Z" fill="#E57917"/>
<path d="M244.974 186.864C243.354 186.864 241.724 187.385 240.35 188.463L229.481 196.987C226.222 199.543 225.652 204.258 228.208 207.516C230.765 210.777 235.479 211.346 238.738 208.789L249.607 200.266C252.866 197.71 253.436 192.994 250.88 189.736C249.401 187.849 247.198 186.864 244.974 186.864Z" fill="#E57917"/>
<path d="M308.225 189.997C306.58 189.997 304.924 190.535 303.54 191.644C300.308 194.234 299.787 198.955 302.377 202.187L311.014 212.967C313.604 216.199 318.324 216.722 321.557 214.13C324.789 211.54 325.31 206.819 322.72 203.587L314.083 192.807C312.601 190.959 310.423 189.997 308.225 189.997Z" fill="#E57917"/>
<path d="M250.408 80.5922C248.788 80.5922 247.158 81.1132 245.784 82.1913L234.915 90.7158C231.656 93.273 231.086 97.9873 233.642 101.247C236.199 104.506 240.913 105.076 244.172 102.519L255.041 93.9941C258.3 91.4369 258.87 86.7226 256.314 83.4634C254.835 81.5773 252.633 80.5922 250.408 80.5922Z" fill="#E57917"/>
<path d="M208.794 137.672C207.207 137.672 205.606 138.173 204.248 139.211C200.956 141.725 200.325 146.432 202.839 149.725L211.222 160.703C213.736 163.994 218.443 164.628 221.735 162.112C225.027 159.598 225.658 154.891 223.144 151.599L214.761 140.62C213.285 138.688 211.052 137.672 208.794 137.672Z" fill="#E57917"/>
</g>
<defs>
<clipPath id="clip0">
<rect width="350" height="350.022" fill="white" transform="matrix(1 0 0 -1 83 817.052)"/>
</clipPath>
<clipPath id="clip1">
<rect width="512" height="512.033" fill="white" transform="matrix(1 0 0 -1 0 512.033)"/>
</clipPath>
</defs>
</svg>
