<svg width="500" height="500" viewBox="0 0 500 500" fill="none" xmlns="http://www.w3.org/2000/svg">
<g clip-path="url(#clip0)">
<path d="M186.065 355.231L164.339 369.714L128.13 362.472L106.404 355.231L77.436 362.472L55.71 355.231L70.1934 326.263H99.1612L127.55 312.069C149.443 322.895 169.25 337.509 186.065 355.231Z" fill="#03AA6F"/>
<path d="M19.5014 326.263L12.2596 347.989L-9.46637 355.231L-31.1924 391.44L-67.4019 413.166L-118.095 420.408V442.134L-103.611 456.617V485.585L-125.336 471.101L-147.062 456.617L-159.663 418.743C-137.973 367.056 -96.5132 326.197 -44.5167 305.261L-23.9498 319.021L19.5014 326.263Z" fill="#03AA6F"/>
<path d="M33.9857 529.035L26.744 565.245L-2.22379 594.213V615.939L-31.1916 637.664V673.873L-52.9167 666.632L-67.401 630.422V558.003L-103.611 550.761L-118.094 521.794V500.068L-103.611 485.584L-81.8845 463.858L-67.401 492.826H-16.7081L5.01794 529.035H33.9857Z" fill="#03AA6F"/>
<path d="M217.205 397.45C256.739 467.979 252.234 554.947 205.618 621.007L186.065 601.454V572.487L171.582 543.519L157.098 514.551V485.583L135.372 471.1L106.405 478.342L55.7117 456.616L48.47 405.923L70.196 384.197H113.647L128.131 405.923L171.582 413.164L215.033 398.681L217.205 397.45Z" fill="#03AA6F"/>
<path d="M77.4368 362.475L106.405 355.233L128.131 362.475L164.34 369.717L186.066 355.233C198.196 367.928 208.661 382.115 217.206 397.453L215.034 398.684L171.583 413.168L128.131 405.926L113.648 384.2H70.1967L48.4707 405.926L55.7124 456.619L106.405 478.345L135.373 471.103L157.099 485.587V514.555L171.583 543.522L186.066 572.49V601.458L205.619 621.011C138.741 715.778 7.69783 738.381 -87.0624 671.501C-167.542 614.695 -197.733 509.593 -159.663 418.744L-147.062 456.619L-125.336 471.103L-103.61 485.586L-118.094 500.07V521.796L-103.611 550.764L-67.4011 558.006V630.425L-52.9176 666.634L-31.1916 673.876V637.667L-2.22386 615.94V594.214L26.7439 565.247L33.9856 529.037H5.01787L-16.7081 492.828H-67.4011L-81.8846 463.86L-103.611 485.586V456.618L-118.094 442.136V420.41L-67.4011 413.168L-31.1916 391.442L-9.46559 355.232L12.2604 347.991L19.5022 326.265L-23.9491 319.023L-44.516 305.263C11.1743 282.835 73.802 285.311 127.551 312.071L99.1629 326.265H70.1951L55.7117 355.232L77.4368 362.475Z" fill="#86DAF1"/>
<g clip-path="url(#clip1)">
<path d="M287.449 371.98C319.199 336.012 311.898 279.996 274.612 249.802C237.325 219.608 182.631 225.368 152.439 262.651C152.439 262.651 125.656 294.39 122.23 315.662C122.23 315.662 136.953 302.351 152.775 305.697C168.597 309.044 175.354 307.026 175.354 307.026C175.354 307.026 114.753 333.662 134.537 418.292C134.537 418.292 146.458 392.856 164.4 393.585C182.341 394.314 197.957 383.304 205.061 372.101C205.061 372.101 209.695 389.264 191.414 405.995C191.414 405.995 214.605 409.008 253.035 360.084C253.035 360.084 269.453 375.346 239.781 399.818C239.781 399.818 262.387 400.38 287.449 371.98Z" fill="#D83131"/>
<path d="M209.671 257.555C209.671 257.555 243.293 221.781 278.128 252.135C278.128 252.135 308.041 277.076 283.556 311.296C283.556 311.296 277.053 283.757 259.85 305.341C256.786 309.179 254.838 313.762 253.765 318.557C252.526 324.059 249.17 332.943 240.022 341.197C240.022 341.197 250.81 319.142 233.455 320.129C223.076 320.721 216.897 323.569 201.885 347.185C201.885 347.185 199.733 335.002 209.597 318.837C211.465 315.776 211.481 311.783 209.252 308.976C207.056 306.215 202.853 304.663 194.825 309.499C194.825 309.499 195.829 296.768 220.568 283.893C220.568 283.893 230.635 276.321 226.003 266.127C221.372 255.933 209.671 257.555 209.671 257.555Z" fill="#FEE45A"/>
</g>
<g clip-path="url(#clip2)">
<path d="M257.002 269.605C257.002 269.605 191.462 217.221 176.433 122.173C175.24 114.627 179.665 107.32 186.928 104.95L216.289 95.3674L220.664 97.4846L446.952 24.0539C454.714 21.5209 458.878 25.8071 458.014 33.9257L432.608 269.114L435.897 273.201L432.628 303.915C431.82 311.512 425.593 317.359 417.963 317.761C321.867 322.822 257.002 269.605 257.002 269.605Z" fill="#FE9738"/>
<path d="M432.628 303.914L461.563 32.0089C462.432 23.8912 454.635 17.5774 446.875 20.1143L444.147 21.004C447.164 23.2639 449.045 27.0196 448.577 31.28L418.164 306.069C417.596 311.224 414.558 315.593 410.295 318.038C412.825 317.988 415.384 317.894 417.965 317.761C425.595 317.36 431.82 311.514 432.628 303.914Z" fill="#FE860A"/>
<path d="M286.732 232.892C286.732 232.892 225.412 183.881 216.29 95.3672L243.508 86.4843L245.863 87.4943L448.507 22.1337C456.269 19.6007 458.878 25.807 458.014 33.9256L435.846 239.141L438.927 244.731L435.897 273.201C348.917 287.603 286.732 232.892 286.732 232.892Z" fill="#FEE45A"/>
<path d="M435.899 273.203L461.563 32.0089C462.432 23.8913 454.635 17.5774 446.875 20.1143L444.147 21.004C447.164 23.264 449.045 27.0196 448.577 31.28L421.603 274.987C426.288 274.591 431.054 274.003 435.899 273.203Z" fill="#FEDF30"/>
<path d="M306.191 208.862C306.191 208.862 251.625 165.25 243.508 86.4843L446.876 20.1115C454.638 17.5785 462.431 23.8887 461.567 32.0077L438.927 244.732C362.136 259.209 306.191 208.862 306.191 208.862Z" fill="#FDB97E"/>
<path d="M438.927 244.728L461.563 32.0089C462.432 23.8912 454.635 17.5774 446.875 20.1142L444.147 21.0039C447.164 23.2639 449.045 27.0195 448.577 31.2799L424.731 246.717C429.376 246.289 434.112 245.635 438.927 244.728Z" fill="#FEA95C"/>
<path d="M339.095 81.3906C345.681 73.2564 347.453 62.7881 344.764 53.4386L286.134 72.5725C287.984 77.6519 291.194 82.3079 295.701 85.9578C308.94 96.679 328.368 94.6364 339.095 81.3906Z" fill="#E94444"/>
<path d="M339.094 81.3906C345.681 73.2564 347.453 62.7881 344.763 53.4387L329.159 58.5354C328.686 64.5405 326.455 70.473 322.378 75.5085C315.953 83.4419 306.406 87.3542 296.943 86.9136C310.132 96.5443 328.698 94.2289 339.094 81.3906Z" fill="#D83131"/>
<path d="M450.397 136.947L456.908 75.7832C446.103 73.7391 434.56 77.5437 427.158 86.684C416.436 99.9244 418.478 119.352 431.723 130.078C437.231 134.539 443.819 136.792 450.397 136.947Z" fill="#E94444"/>
<path d="M450.397 136.947L456.908 75.7831C452.485 74.9504 447.948 75.0911 443.611 76.1776L437.248 133.653C441.403 135.753 445.903 136.839 450.397 136.947Z" fill="#D83131"/>
<path d="M375.453 150.537C388.695 161.26 390.736 180.687 380.013 193.929C369.289 207.171 349.862 209.214 336.621 198.491C323.379 187.769 321.338 168.341 332.061 155.099C342.785 141.857 362.212 139.814 375.453 150.537Z" fill="#E94444"/>
<path d="M380.015 193.932C390.737 180.691 388.695 161.263 375.45 150.538C365.652 142.603 352.464 141.661 341.923 147.076C348.002 147.509 354.003 149.746 359.094 153.868C372.333 164.589 374.375 184.017 363.653 197.258C360.866 200.699 357.49 203.387 353.787 205.286C363.512 205.99 373.415 202.081 380.015 193.932Z" fill="#D83131"/>
<path d="M425.437 175.562C424.23 174.585 422.566 174.226 420.985 174.753L412.766 177.493C410.301 178.315 408.969 180.978 409.79 183.443C410.613 185.907 413.276 187.24 415.74 186.418L423.96 183.679C426.424 182.857 427.756 180.193 426.935 177.728C426.641 176.846 426.11 176.107 425.437 175.562Z" fill="#E57917"/>
<path d="M408.768 211.866C408.106 211.33 407.291 210.967 406.383 210.856C403.804 210.541 401.458 212.375 401.141 214.954L400.088 223.554C399.772 226.133 401.606 228.479 404.185 228.795C406.763 229.111 409.11 227.276 409.426 224.697L410.48 216.097C410.685 214.427 409.987 212.853 408.768 211.866Z" fill="#E57917"/>
<path d="M285.279 121.319C284.336 120.556 283.102 120.156 281.801 120.299C279.219 120.585 277.357 122.909 277.643 125.492L278.594 134.103C278.879 136.685 281.202 138.548 283.785 138.262C286.368 137.976 288.23 135.652 287.944 133.069L286.993 124.458C286.852 123.177 286.208 122.071 285.279 121.319Z" fill="#E57917"/>
<path d="M328.195 130.35C326.736 129.169 324.646 128.932 322.914 129.914L315.376 134.184C313.115 135.465 312.321 138.335 313.601 140.596C314.88 142.858 317.752 143.651 320.013 142.37L327.551 138.1C329.812 136.819 330.606 133.949 329.326 131.688C329.026 131.159 328.64 130.711 328.195 130.35Z" fill="#E57917"/>
<path d="M379.15 107.777C378.36 107.137 377.36 106.748 376.265 106.731L367.603 106.596C365.005 106.555 362.866 108.629 362.826 111.226C362.785 113.825 364.858 115.963 367.456 116.003L376.118 116.138C378.716 116.178 380.855 114.105 380.895 111.508C380.919 110.004 380.234 108.655 379.15 107.777Z" fill="#E57917"/>
<path d="M408.744 134.27C407.942 133.621 406.922 133.229 405.81 133.224C403.212 133.211 401.095 135.306 401.082 137.903L401.037 146.567C401.023 149.165 403.118 151.283 405.717 151.295C408.314 151.308 410.432 149.213 410.445 146.616L410.49 137.952C410.497 136.466 409.815 135.138 408.744 134.27Z" fill="#E57917"/>
<path d="M423.745 58.1218C422.956 57.4824 421.956 57.093 420.86 57.0761L412.198 56.9411C409.6 56.9012 407.461 58.9741 407.421 61.5716C407.381 64.1695 409.453 66.308 412.051 66.348L420.714 66.483C423.312 66.5229 425.45 64.45 425.491 61.8525C425.514 60.3494 424.83 59.0001 423.745 58.1218Z" fill="#E57917"/>
<path d="M380.932 69.5186C380.158 68.8922 379.18 68.5045 378.108 68.4745C375.511 68.4006 373.346 70.446 373.272 73.043L373.024 81.7032C372.951 84.2997 374.995 86.4662 377.593 86.5396C380.189 86.6136 382.355 84.5682 382.429 81.9711L382.676 73.3109C382.72 71.7866 382.032 70.4099 380.932 69.5186Z" fill="#E57917"/>
</g>
</g>
<defs>
<clipPath id="clip0">
<rect width="500" height="500" rx="25" fill="white"/>
</clipPath>
<clipPath id="clip1">
<rect width="219.521" height="219.535" fill="white" transform="matrix(0.777146 0.62932 0.62932 -0.777146 51.4568 351.015)"/>
</clipPath>
<clipPath id="clip2">
<rect width="321.128" height="321.149" fill="white" transform="matrix(0.777146 0.62932 0.62932 -0.777146 131.395 169.579)"/>
</clipPath>
</defs>
</svg>
